<svg viewBox="0 0 1020 1020" xmlns="http://www.w3.org/2000/svg">
<defs>
<radialGradient id="goldMetal" cx="35%" cy="30%" r="75%">
<stop offset="0%" stop-color="#f5dfa0"/>
<stop offset="45%" stop-color="#c9962f"/>
<stop offset="100%" stop-color="#7a5518"/>
</radialGradient>
<linearGradient id="goldRing" x1="0%" y1="0%" x2="100%" y2="100%">
<stop offset="0%" stop-color="#f5dfa0"/>
<stop offset="50%" stop-color="#b8862a"/>
<stop offset="100%" stop-color="#7a5518"/>
</linearGradient>
<radialGradient id="sapphireCore" cx="38%" cy="32%" r="65%">
<stop offset="0%" stop-color="#dceeff"/>
<stop offset="35%" stop-color="#5fb0f2"/>
<stop offset="70%" stop-color="#2a63c9"/>
<stop offset="100%" stop-color="#5a2fb8"/>
</radialGradient>
<radialGradient id="hubStone" cx="50%" cy="40%" r="70%">
<stop offset="0%" stop-color="#242028"/>
<stop offset="100%" stop-color="#0c0a0e"/>
</radialGradient>
<radialGradient id="violetGlow" cx="50%" cy="50%" r="50%">
<stop offset="0%" stop-color="#8a5cf0" stop-opacity="0.55"/>
<stop offset="100%" stop-color="#8a5cf0" stop-opacity="0"/>
</radialGradient>
</defs>
<circle cx="510.0" cy="510.0" r="500" fill="url(#violetGlow)"/>
<circle cx="510.0" cy="510.0" r="462" fill="url(#goldRing)"/>
<circle cx="510.0" cy="510.0" r="454" fill="#0d0d12"/>
<circle cx="510.0" cy="510.0" r="449" fill="url(#goldMetal)"/>
<circle cx="972.00" cy="510.00" r="4" fill="#2a63c9" opacity="0.9"/>
<circle cx="946.97" cy="660.01" r="4" fill="#2a63c9" opacity="0.9"/>
<circle cx="874.58" cy="793.77" r="4" fill="#2a63c9" opacity="0.9"/>
<circle cx="762.69" cy="896.77" r="4" fill="#2a63c9" opacity="0.9"/>
<circle cx="623.41" cy="957.86" r="4" fill="#2a63c9" opacity="0.9"/>
<circle cx="471.85" cy="970.42" r="4" fill="#2a63c9" opacity="0.9"/>
<circle cx="324.42" cy="933.09" r="4" fill="#2a63c9" opacity="0.9"/>
<circle cx="197.10" cy="849.90" r="4" fill="#2a63c9" opacity="0.9"/>
<circle cx="103.68" cy="729.89" r="4" fill="#2a63c9" opacity="0.9"/>
<circle cx="54.30" cy="586.04" r="4" fill="#2a63c9" opacity="0.9"/>
<circle cx="54.30" cy="433.96" r="4" fill="#2a63c9" opacity="0.9"/>
<circle cx="103.68" cy="290.11" r="4" fill="#2a63c9" opacity="0.9"/>
<circle cx="197.10" cy="170.10" r="4" fill="#2a63c9" opacity="0.9"/>
<circle cx="324.42" cy="86.91" r="4" fill="#2a63c9" opacity="0.9"/>
<circle cx="471.85" cy="49.58" r="4" fill="#2a63c9" opacity="0.9"/>
<circle cx="623.41" cy="62.14" r="4" fill="#2a63c9" opacity="0.9"/>
<circle cx="762.69" cy="123.23" r="4" fill="#2a63c9" opacity="0.9"/>
<circle cx="874.58" cy="226.23" r="4" fill="#2a63c9" opacity="0.9"/>
<circle cx="946.97" cy="359.99" r="4" fill="#2a63c9" opacity="0.9"/>
<path d="M 948.497,473.665 A 440.000,440.000 0 0 1 948.497,546.335 L 880.729,540.720 A 372.000,372.000 0 0 0 880.729,479.280 Z" fill="#0f6b46" stroke="url(#goldRing)" stroke-width="2"/>
<text x="916.000" y="510.000" fill="#f0e6c8" font-family="Georgia, serif" font-size="22" font-weight="700" text-anchor="middle" dominant-baseline="middle" transform="rotate(90.000 916.000 510.000)">0</text>
<path d="M 948.497,546.335 A 440.000,440.000 0 0 1 936.536,618.014 L 870.617,601.321 A 372.000,372.000 0 0 0 880.729,540.720 Z" fill="#0d0d12" stroke="url(#goldRing)" stroke-width="2"/>
<text x="910.463" y="576.825" fill="#f0e6c8" font-family="Georgia, serif" font-size="22" font-weight="700" text-anchor="middle" dominant-baseline="middle" transform="rotate(99.474 910.463 576.825)">28</text>
<path d="M 936.536,618.014 A 440.000,440.000 0 0 1 912.940,686.746 L 850.668,659.431 A 372.000,372.000 0 0 0 870.617,601.321 Z" fill="#8a1128" stroke="url(#goldRing)" stroke-width="2"/>
<text x="894.002" y="641.828" fill="#f0e6c8" font-family="Georgia, serif" font-size="22" font-weight="700" text-anchor="middle" dominant-baseline="middle" transform="rotate(108.947 894.002 641.828)">9</text>
<path d="M 912.940,686.746 A 440.000,440.000 0 0 1 878.353,750.657 L 821.426,713.465 A 372.000,372.000 0 0 0 850.668,659.431 Z" fill="#0d0d12" stroke="url(#goldRing)" stroke-width="2"/>
<text x="867.066" y="703.235" fill="#f0e6c8" font-family="Georgia, serif" font-size="22" font-weight="700" text-anchor="middle" dominant-baseline="middle" transform="rotate(118.421 867.066 703.235)">26</text>
<path d="M 878.353,750.657 A 440.000,440.000 0 0 1 833.719,808.004 L 783.689,761.949 A 372.000,372.000 0 0 0 821.426,713.465 Z" fill="#8a1128" stroke="url(#goldRing)" stroke-width="2"/>
<text x="830.391" y="759.370" fill="#f0e6c8" font-family="Georgia, serif" font-size="22" font-weight="700" text-anchor="middle" dominant-baseline="middle" transform="rotate(127.895 830.391 759.370)">30</text>
<path d="M 833.719,808.004 A 440.000,440.000 0 0 1 780.254,857.222 L 738.487,803.560 A 372.000,372.000 0 0 0 783.689,761.949 Z" fill="#0d0d12" stroke="url(#goldRing)" stroke-width="2"/>
<text x="784.976" y="808.704" fill="#f0e6c8" font-family="Georgia, serif" font-size="22" font-weight="700" text-anchor="middle" dominant-baseline="middle" transform="rotate(137.368 784.976 808.704)">11</text>
<path d="M 780.254,857.222 A 440.000,440.000 0 0 1 719.417,896.968 L 687.052,837.164 A 372.000,372.000 0 0 0 738.487,803.560 Z" fill="#8a1128" stroke="url(#goldRing)" stroke-width="2"/>
<text x="732.061" y="849.890" fill="#f0e6c8" font-family="Georgia, serif" font-size="22" font-weight="700" text-anchor="middle" dominant-baseline="middle" transform="rotate(146.842 732.061 849.890)">7</text>
<path d="M 719.417,896.968 A 440.000,440.000 0 0 1 652.868,926.160 L 630.788,861.844 A 372.000,372.000 0 0 0 687.052,837.164 Z" fill="#0d0d12" stroke="url(#goldRing)" stroke-width="2"/>
<text x="673.088" y="881.804" fill="#f0e6c8" font-family="Georgia, serif" font-size="22" font-weight="700" text-anchor="middle" dominant-baseline="middle" transform="rotate(156.316 673.088 881.804)">20</text>
<path d="M 652.868,926.160 A 440.000,440.000 0 0 1 582.422,943.999 L 571.229,876.926 A 372.000,372.000 0 0 0 630.788,861.844 Z" fill="#8a1128" stroke="url(#goldRing)" stroke-width="2"/>
<text x="609.667" y="903.577" fill="#f0e6c8" font-family="Georgia, serif" font-size="22" font-weight="700" text-anchor="middle" dominant-baseline="middle" transform="rotate(165.789 609.667 903.577)">32</text>
<path d="M 582.422,943.999 A 440.000,440.000 0 0 1 510.000,950.000 L 510.000,882.000 A 372.000,372.000 0 0 0 571.229,876.926 Z" fill="#0d0d12" stroke="url(#goldRing)" stroke-width="2"/>
<text x="543.527" y="914.613" fill="#f0e6c8" font-family="Georgia, serif" font-size="22" font-weight="700" text-anchor="middle" dominant-baseline="middle" transform="rotate(175.263 543.527 914.613)">17</text>
<path d="M 510.000,950.000 A 440.000,440.000 0 0 1 437.578,943.999 L 448.771,876.926 A 372.000,372.000 0 0 0 510.000,882.000 Z" fill="#8a1128" stroke="url(#goldRing)" stroke-width="2"/>
<text x="476.473" y="914.613" fill="#f0e6c8" font-family="Georgia, serif" font-size="22" font-weight="700" text-anchor="middle" dominant-baseline="middle" transform="rotate(184.737 476.473 914.613)">5</text>
<path d="M 437.578,943.999 A 440.000,440.000 0 0 1 367.132,926.160 L 389.212,861.844 A 372.000,372.000 0 0 0 448.771,876.926 Z" fill="#0d0d12" stroke="url(#goldRing)" stroke-width="2"/>
<text x="410.333" y="903.577" fill="#f0e6c8" font-family="Georgia, serif" font-size="22" font-weight="700" text-anchor="middle" dominant-baseline="middle" transform="rotate(194.211 410.333 903.577)">22</text>
<path d="M 367.132,926.160 A 440.000,440.000 0 0 1 300.583,896.968 L 332.948,837.164 A 372.000,372.000 0 0 0 389.212,861.844 Z" fill="#8a1128" stroke="url(#goldRing)" stroke-width="2"/>
<text x="346.912" y="881.804" fill="#f0e6c8" font-family="Georgia, serif" font-size="22" font-weight="700" text-anchor="middle" dominant-baseline="middle" transform="rotate(203.684 346.912 881.804)">34</text>
<path d="M 300.583,896.968 A 440.000,440.000 0 0 1 239.746,857.222 L 281.513,803.560 A 372.000,372.000 0 0 0 332.948,837.164 Z" fill="#0d0d12" stroke="url(#goldRing)" stroke-width="2"/>
<text x="287.939" y="849.890" fill="#f0e6c8" font-family="Georgia, serif" font-size="22" font-weight="700" text-anchor="middle" dominant-baseline="middle" transform="rotate(213.158 287.939 849.890)">15</text>
<path d="M 239.746,857.222 A 440.000,440.000 0 0 1 186.281,808.004 L 236.311,761.949 A 372.000,372.000 0 0 0 281.513,803.560 Z" fill="#8a1128" stroke="url(#goldRing)" stroke-width="2"/>
<text x="235.024" y="808.704" fill="#f0e6c8" font-family="Georgia, serif" font-size="22" font-weight="700" text-anchor="middle" dominant-baseline="middle" transform="rotate(222.632 235.024 808.704)">3</text>
<path d="M 186.281,808.004 A 440.000,440.000 0 0 1 141.647,750.657 L 198.574,713.465 A 372.000,372.000 0 0 0 236.311,761.949 Z" fill="#0d0d12" stroke="url(#goldRing)" stroke-width="2"/>
<text x="189.609" y="759.370" fill="#f0e6c8" font-family="Georgia, serif" font-size="22" font-weight="700" text-anchor="middle" dominant-baseline="middle" transform="rotate(232.105 189.609 759.370)">24</text>
<path d="M 141.647,750.657 A 440.000,440.000 0 0 1 107.060,686.746 L 169.332,659.431 A 372.000,372.000 0 0 0 198.574,713.465 Z" fill="#8a1128" stroke="url(#goldRing)" stroke-width="2"/>
<text x="152.934" y="703.235" fill="#f0e6c8" font-family="Georgia, serif" font-size="22" font-weight="700" text-anchor="middle" dominant-baseline="middle" transform="rotate(241.579 152.934 703.235)">36</text>
<path d="M 107.060,686.746 A 440.000,440.000 0 0 1 83.464,618.014 L 149.383,601.321 A 372.000,372.000 0 0 0 169.332,659.431 Z" fill="#0d0d12" stroke="url(#goldRing)" stroke-width="2"/>
<text x="125.998" y="641.828" fill="#f0e6c8" font-family="Georgia, serif" font-size="22" font-weight="700" text-anchor="middle" dominant-baseline="middle" transform="rotate(251.053 125.998 641.828)">13</text>
<path d="M 83.464,618.014 A 440.000,440.000 0 0 1 71.503,546.335 L 139.271,540.720 A 372.000,372.000 0 0 0 149.383,601.321 Z" fill="#8a1128" stroke="url(#goldRing)" stroke-width="2"/>
<text x="109.537" y="576.825" fill="#f0e6c8" font-family="Georgia, serif" font-size="22" font-weight="700" text-anchor="middle" dominant-baseline="middle" transform="rotate(260.526 109.537 576.825)">1</text>
<path d="M 71.503,546.335 A 440.000,440.000 0 0 1 71.503,473.665 L 139.271,479.280 A 372.000,372.000 0 0 0 139.271,540.720 Z" fill="#0f6b46" stroke="url(#goldRing)" stroke-width="2"/>
<text x="104.000" y="510.000" fill="#f0e6c8" font-family="Georgia, serif" font-size="22" font-weight="700" text-anchor="middle" dominant-baseline="middle" transform="rotate(270.000 104.000 510.000)">00</text>
<path d="M 71.503,473.665 A 440.000,440.000 0 0 1 83.464,401.986 L 149.383,418.679 A 372.000,372.000 0 0 0 139.271,479.280 Z" fill="#8a1128" stroke="url(#goldRing)" stroke-width="2"/>
<text x="109.537" y="443.175" fill="#f0e6c8" font-family="Georgia, serif" font-size="22" font-weight="700" text-anchor="middle" dominant-baseline="middle" transform="rotate(279.474 109.537 443.175)">27</text>
<path d="M 83.464,401.986 A 440.000,440.000 0 0 1 107.060,333.254 L 169.332,360.569 A 372.000,372.000 0 0 0 149.383,418.679 Z" fill="#0d0d12" stroke="url(#goldRing)" stroke-width="2"/>
<text x="125.998" y="378.172" fill="#f0e6c8" font-family="Georgia, serif" font-size="22" font-weight="700" text-anchor="middle" dominant-baseline="middle" transform="rotate(288.947 125.998 378.172)">10</text>
<path d="M 107.060,333.254 A 440.000,440.000 0 0 1 141.647,269.343 L 198.574,306.535 A 372.000,372.000 0 0 0 169.332,360.569 Z" fill="#8a1128" stroke="url(#goldRing)" stroke-width="2"/>
<text x="152.934" y="316.765" fill="#f0e6c8" font-family="Georgia, serif" font-size="22" font-weight="700" text-anchor="middle" dominant-baseline="middle" transform="rotate(298.421 152.934 316.765)">25</text>
<path d="M 141.647,269.343 A 440.000,440.000 0 0 1 186.281,211.996 L 236.311,258.051 A 372.000,372.000 0 0 0 198.574,306.535 Z" fill="#0d0d12" stroke="url(#goldRing)" stroke-width="2"/>
<text x="189.609" y="260.630" fill="#f0e6c8" font-family="Georgia, serif" font-size="22" font-weight="700" text-anchor="middle" dominant-baseline="middle" transform="rotate(307.895 189.609 260.630)">29</text>
<path d="M 186.281,211.996 A 440.000,440.000 0 0 1 239.746,162.778 L 281.513,216.440 A 372.000,372.000 0 0 0 236.311,258.051 Z" fill="#8a1128" stroke="url(#goldRing)" stroke-width="2"/>
<text x="235.024" y="211.296" fill="#f0e6c8" font-family="Georgia, serif" font-size="22" font-weight="700" text-anchor="middle" dominant-baseline="middle" transform="rotate(317.368 235.024 211.296)">12</text>
<path d="M 239.746,162.778 A 440.000,440.000 0 0 1 300.583,123.032 L 332.948,182.836 A 372.000,372.000 0 0 0 281.513,216.440 Z" fill="#0d0d12" stroke="url(#goldRing)" stroke-width="2"/>
<text x="287.939" y="170.110" fill="#f0e6c8" font-family="Georgia, serif" font-size="22" font-weight="700" text-anchor="middle" dominant-baseline="middle" transform="rotate(326.842 287.939 170.110)">8</text>
<path d="M 300.583,123.032 A 440.000,440.000 0 0 1 367.132,93.840 L 389.212,158.156 A 372.000,372.000 0 0 0 332.948,182.836 Z" fill="#8a1128" stroke="url(#goldRing)" stroke-width="2"/>
<text x="346.912" y="138.196" fill="#f0e6c8" font-family="Georgia, serif" font-size="22" font-weight="700" text-anchor="middle" dominant-baseline="middle" transform="rotate(336.316 346.912 138.196)">19</text>
<path d="M 367.132,93.840 A 440.000,440.000 0 0 1 437.578,76.001 L 448.771,143.074 A 372.000,372.000 0 0 0 389.212,158.156 Z" fill="#0d0d12" stroke="url(#goldRing)" stroke-width="2"/>
<text x="410.333" y="116.423" fill="#f0e6c8" font-family="Georgia, serif" font-size="22" font-weight="700" text-anchor="middle" dominant-baseline="middle" transform="rotate(345.789 410.333 116.423)">31</text>
<path d="M 437.578,76.001 A 440.000,440.000 0 0 1 510.000,70.000 L 510.000,138.000 A 372.000,372.000 0 0 0 448.771,143.074 Z" fill="#8a1128" stroke="url(#goldRing)" stroke-width="2"/>
<text x="476.473" y="105.387" fill="#f0e6c8" font-family="Georgia, serif" font-size="22" font-weight="700" text-anchor="middle" dominant-baseline="middle" transform="rotate(355.263 476.473 105.387)">18</text>
<path d="M 510.000,70.000 A 440.000,440.000 0 0 1 582.422,76.001 L 571.229,143.074 A 372.000,372.000 0 0 0 510.000,138.000 Z" fill="#0d0d12" stroke="url(#goldRing)" stroke-width="2"/>
<text x="543.527" y="105.387" fill="#f0e6c8" font-family="Georgia, serif" font-size="22" font-weight="700" text-anchor="middle" dominant-baseline="middle" transform="rotate(364.737 543.527 105.387)">6</text>
<path d="M 582.422,76.001 A 440.000,440.000 0 0 1 652.868,93.840 L 630.788,158.156 A 372.000,372.000 0 0 0 571.229,143.074 Z" fill="#8a1128" stroke="url(#goldRing)" stroke-width="2"/>
<text x="609.667" y="116.423" fill="#f0e6c8" font-family="Georgia, serif" font-size="22" font-weight="700" text-anchor="middle" dominant-baseline="middle" transform="rotate(374.211 609.667 116.423)">21</text>
<path d="M 652.868,93.840 A 440.000,440.000 0 0 1 719.417,123.032 L 687.052,182.836 A 372.000,372.000 0 0 0 630.788,158.156 Z" fill="#0d0d12" stroke="url(#goldRing)" stroke-width="2"/>
<text x="673.088" y="138.196" fill="#f0e6c8" font-family="Georgia, serif" font-size="22" font-weight="700" text-anchor="middle" dominant-baseline="middle" transform="rotate(383.684 673.088 138.196)">33</text>
<path d="M 719.417,123.032 A 440.000,440.000 0 0 1 780.254,162.778 L 738.487,216.440 A 372.000,372.000 0 0 0 687.052,182.836 Z" fill="#8a1128" stroke="url(#goldRing)" stroke-width="2"/>
<text x="732.061" y="170.110" fill="#f0e6c8" font-family="Georgia, serif" font-size="22" font-weight="700" text-anchor="middle" dominant-baseline="middle" transform="rotate(393.158 732.061 170.110)">16</text>
<path d="M 780.254,162.778 A 440.000,440.000 0 0 1 833.719,211.996 L 783.689,258.051 A 372.000,372.000 0 0 0 738.487,216.440 Z" fill="#0d0d12" stroke="url(#goldRing)" stroke-width="2"/>
<text x="784.976" y="211.296" fill="#f0e6c8" font-family="Georgia, serif" font-size="22" font-weight="700" text-anchor="middle" dominant-baseline="middle" transform="rotate(402.632 784.976 211.296)">4</text>
<path d="M 833.719,211.996 A 440.000,440.000 0 0 1 878.353,269.343 L 821.426,306.535 A 372.000,372.000 0 0 0 783.689,258.051 Z" fill="#8a1128" stroke="url(#goldRing)" stroke-width="2"/>
<text x="830.391" y="260.630" fill="#f0e6c8" font-family="Georgia, serif" font-size="22" font-weight="700" text-anchor="middle" dominant-baseline="middle" transform="rotate(412.105 830.391 260.630)">23</text>
<path d="M 878.353,269.343 A 440.000,440.000 0 0 1 912.940,333.254 L 850.668,360.569 A 372.000,372.000 0 0 0 821.426,306.535 Z" fill="#0d0d12" stroke="url(#goldRing)" stroke-width="2"/>
<text x="867.066" y="316.765" fill="#f0e6c8" font-family="Georgia, serif" font-size="22" font-weight="700" text-anchor="middle" dominant-baseline="middle" transform="rotate(421.579 867.066 316.765)">35</text>
<path d="M 912.940,333.254 A 440.000,440.000 0 0 1 936.536,401.986 L 870.617,418.679 A 372.000,372.000 0 0 0 850.668,360.569 Z" fill="#8a1128" stroke="url(#goldRing)" stroke-width="2"/>
<text x="894.002" y="378.172" fill="#f0e6c8" font-family="Georgia, serif" font-size="22" font-weight="700" text-anchor="middle" dominant-baseline="middle" transform="rotate(431.053 894.002 378.172)">14</text>
<path d="M 936.536,401.986 A 440.000,440.000 0 0 1 948.497,473.665 L 880.729,479.280 A 372.000,372.000 0 0 0 870.617,418.679 Z" fill="#0d0d12" stroke="url(#goldRing)" stroke-width="2"/>
<text x="910.463" y="443.175" fill="#f0e6c8" font-family="Georgia, serif" font-size="22" font-weight="700" text-anchor="middle" dominant-baseline="middle" transform="rotate(440.526 910.463 443.175)">2</text>
<circle cx="510.0" cy="510.0" r="372" fill="none" stroke="url(#goldRing)" stroke-width="8"/>
<circle cx="510.0" cy="510.0" r="362" fill="none" stroke="#0d0d12" stroke-width="3"/>
<circle cx="510.0" cy="510.0" r="330" fill="url(#hubStone)" stroke="url(#goldRing)" stroke-width="4"/>
<line x1="714.60" y1="510.00" x2="820.20" y2="510.00" stroke="url(#goldRing)" stroke-width="2.5" opacity="0.9"/>
<line x1="699.03" y1="588.30" x2="796.59" y2="628.71" stroke="url(#goldRing)" stroke-width="1" opacity="0.4"/>
<line x1="654.67" y1="654.67" x2="729.34" y2="729.34" stroke="url(#goldRing)" stroke-width="1" opacity="0.4"/>
<line x1="588.30" y1="699.03" x2="628.71" y2="796.59" stroke="url(#goldRing)" stroke-width="1" opacity="0.4"/>
<line x1="510.00" y1="714.60" x2="510.00" y2="820.20" stroke="url(#goldRing)" stroke-width="2.5" opacity="0.9"/>
<line x1="431.70" y1="699.03" x2="391.29" y2="796.59" stroke="url(#goldRing)" stroke-width="1" opacity="0.4"/>
<line x1="365.33" y1="654.67" x2="290.66" y2="729.34" stroke="url(#goldRing)" stroke-width="1" opacity="0.4"/>
<line x1="320.97" y1="588.30" x2="223.41" y2="628.71" stroke="url(#goldRing)" stroke-width="1" opacity="0.4"/>
<line x1="305.40" y1="510.00" x2="199.80" y2="510.00" stroke="url(#goldRing)" stroke-width="2.5" opacity="0.9"/>
<line x1="320.97" y1="431.70" x2="223.41" y2="391.29" stroke="url(#goldRing)" stroke-width="1" opacity="0.4"/>
<line x1="365.33" y1="365.33" x2="290.66" y2="290.66" stroke="url(#goldRing)" stroke-width="1" opacity="0.4"/>
<line x1="431.70" y1="320.97" x2="391.29" y2="223.41" stroke="url(#goldRing)" stroke-width="1" opacity="0.4"/>
<line x1="510.00" y1="305.40" x2="510.00" y2="199.80" stroke="url(#goldRing)" stroke-width="2.5" opacity="0.9"/>
<line x1="588.30" y1="320.97" x2="628.71" y2="223.41" stroke="url(#goldRing)" stroke-width="1" opacity="0.4"/>
<line x1="654.67" y1="365.33" x2="729.34" y2="290.66" stroke="url(#goldRing)" stroke-width="1" opacity="0.4"/>
<line x1="699.03" y1="431.70" x2="796.59" y2="391.29" stroke="url(#goldRing)" stroke-width="1" opacity="0.4"/>
<circle cx="767.40" cy="510.00" r="6" fill="#5fb0f2" opacity="0.85"/>
<circle cx="767.40" cy="510.00" r="10" fill="none" stroke="#5fb0f2" stroke-width="1" opacity="0.4"/>
<circle cx="692.01" cy="692.01" r="6" fill="#5fb0f2" opacity="0.85"/>
<circle cx="692.01" cy="692.01" r="10" fill="none" stroke="#5fb0f2" stroke-width="1" opacity="0.4"/>
<circle cx="510.00" cy="767.40" r="6" fill="#5fb0f2" opacity="0.85"/>
<circle cx="510.00" cy="767.40" r="10" fill="none" stroke="#5fb0f2" stroke-width="1" opacity="0.4"/>
<circle cx="327.99" cy="692.01" r="6" fill="#5fb0f2" opacity="0.85"/>
<circle cx="327.99" cy="692.01" r="10" fill="none" stroke="#5fb0f2" stroke-width="1" opacity="0.4"/>
<circle cx="252.60" cy="510.00" r="6" fill="#5fb0f2" opacity="0.85"/>
<circle cx="252.60" cy="510.00" r="10" fill="none" stroke="#5fb0f2" stroke-width="1" opacity="0.4"/>
<circle cx="327.99" cy="327.99" r="6" fill="#5fb0f2" opacity="0.85"/>
<circle cx="327.99" cy="327.99" r="10" fill="none" stroke="#5fb0f2" stroke-width="1" opacity="0.4"/>
<circle cx="510.00" cy="252.60" r="6" fill="#5fb0f2" opacity="0.85"/>
<circle cx="510.00" cy="252.60" r="10" fill="none" stroke="#5fb0f2" stroke-width="1" opacity="0.4"/>
<circle cx="692.01" cy="327.99" r="6" fill="#5fb0f2" opacity="0.85"/>
<circle cx="692.01" cy="327.99" r="10" fill="none" stroke="#5fb0f2" stroke-width="1" opacity="0.4"/>
<circle cx="510.0" cy="510.0" r="260" fill="none" stroke="url(#goldRing)" stroke-width="5"/>
<circle cx="510.0" cy="510.0" r="246" fill="#131016" stroke="#5a2fb8" stroke-width="1.5" opacity="0.7"/>
<polygon points="510.00,307.20 543.83,428.33 653.40,366.60 591.67,476.17 712.80,510.00 591.67,543.83 653.40,653.40 543.83,591.67 510.00,712.80 476.17,591.67 366.60,653.40 428.33,543.83 307.20,510.00 428.33,476.17 366.60,366.60 476.17,428.33" fill="url(#goldRing)" opacity="0.5"/>
<polygon points="510.00,360.00 639.90,435.00 639.90,585.00 510.00,660.00 380.10,585.00 380.10,435.00" fill="url(#sapphireCore)" stroke="url(#goldRing)" stroke-width="3"/>
<polygon points="551.25,438.55 592.50,510.00 551.25,581.45 468.75,581.45 427.50,510.00 468.75,438.55" fill="#dceeff" opacity="0.5"/>
<circle cx="483.0" cy="477.0" r="24.0" fill="#ffffff" opacity="0.8"/>
</svg>